<svg version="1.2" xmlns="http://www.w3.org/2000/svg" viewBox="0 0 235 158" width="235" height="158"><style>.a{fill:#2b2f31}.b{fill:#252728}.c{fill:#596b7d}.d{fill:#3c3935}.e{fill:#42566f}.f{fill:#496075}.g{fill:#494239}.h{fill:#5c5a47}.i{fill:#495359}.j{fill:#686d73}.k{fill:#4d2e2c}.l{fill:#6c6e56}.m{fill:#6a342f}.n{fill:#77797e}.o{fill:#829271}.p{fill:#748ab0}.q{fill:#7b9bdb}.r{fill:#959d95}.s{fill:#cfc9a3}</style><path fill-rule="evenodd" class="a" d="m192.2 2c1 0 1.8 0.7 1.8 1.5 0 0.8-0.9 1.5-2 1.5-1.1 0-2.2-0.3-2.5-0.8-0.2-0.4-0.2-1 0.2-1.5 0.3-0.4 1.5-0.7 2.5-0.7zm7 0c0.4 0 1 0.4 1.3 1 0.3 0.5 0.9 0.8 1.5 0.5 0.5-0.3 1-0.1 1 0.5 0 0.5-1.4 1-3 1-1.7 0-3.1-0.4-3.2-0.8-0.1-0.5 0.2-1.2 0.7-1.5 0.5-0.4 1.2-0.7 1.7-0.7zm-10.1 7c1.1 0.6 2 1.5 2 2-0.1 0.6-0.8 0.8-1.6 0.5-0.8-0.3-1.7-0.5-2-0.5-0.3 0-0.5-0.7-0.4-1.5 0-1.3 0.4-1.4 2-0.5zm13.4 1c0.8 0 1.5 0.4 1.5 1 0 0.5-0.7 1.3-1.5 1.7-0.8 0.5-1.7 0.5-2 0-0.3-0.4-0.3-1.2 0-1.7 0.4-0.6 1.3-1 2-1zm-12.3 54.6c0.6 0.3 1 2.1 0.9 4-0.1 3 0.1 3.2 1.4 1.9 0.8-0.8 1.5-2.4 1.5-3.5 0-1.1 0.6-1.9 1.2-1.7 0.7 0.2 1.4 1.8 1.5 3.5 0.2 2.1 0.8 3.2 1.8 3.2 0.8 0 1.5 0.6 1.5 1.2 0 0.7 1.3 1.9 6 3.8l-3.3 6.5-1.3-3c-0.7-1.7-1.3-2.6-1.3-2 0 0.5-0.6 0.3-1.3-0.6-0.7-0.9-3.3-2-5.8-2.5-2.5-0.4-7.2-0.7-10.5-0.7-4.1 0.1-9.8 1.4-18 4.1-6.6 2.2-15.6 4.8-20 5.7-4.4 1-11.2 2.5-15 3.6-3.9 1-11.5 3.2-17 4.9-5.5 1.7-10.9 3.3-12 3.5-1.1 0.3-3.4 0.8-5 1.1-1.7 0.4-4.7 1.5-6.8 2.5-2 1.1-4.4 1.9-5.2 1.9-0.8 0-2.9 0.9-7.5 4l0.2-3.5c0.2-1.9 0.6-3.5 1-3.5 0.5 0 0.8-0.7 0.8-1.5 0-1 2.7-2.3 8.2-3.9 4.6-1.4 21.6-6.1 37.8-10.5 16.2-4.5 31.7-8.7 34.5-9.5 2.7-0.8 6.6-1.7 8.5-2 1.9-0.3 5.9-0.8 8.7-1.1 2.9-0.3 6.3-0.9 7.5-1.4 1.3-0.5 3.1-1.8 4.2-3 1-1.1 2.3-1.8 2.8-1.5zm36-0.5c1.6-0.1 2.8 0.2 2.7 0.6 0 0.5-0.3 1.6-0.7 2.7-0.4 1-2.6 2.5-9.2 4.6l-0.2-2.8c-0.2-2.2 0.4-3.2 2.2-4 1.4-0.6 3.7-1.1 5.2-1.1zm-10.2 2.9c0.5 0 1 1.1 1 2.5 0 1.4-0.5 2.5-1 2.5-0.6 0-1-1.1-1-2.5 0-1.4 0.4-2.5 1-2.5zm-23.2 25.7c0.2 5.8 0.4 6.4 2.9 7.4 2.3 0.8 2.5 1.2 1.3 1.9-0.8 0.5-1.3 1.1-1 1.4 0.3 0.3 2.3 0.1 4.5-0.5 2.3-0.6 4.2-0.7 4.5-0.2 0.3 0.5 3.3 2 13.1 5.8l-0.1 4.7c0 4.7-0.1 4.8-3.8 5.7-2 0.5-16.1 4.3-31.2 8.5-15.1 4.2-34 9.4-42 11.6-8 2.2-26.9 7.4-69.5 19.1l-5-1.7c-5-1.6-5-1.6-2.7-3.3 1.9-1.3 2.2-2.2 1.6-4.6-0.3-1.7-0.6-4.2-0.5-5.8 0-1.5-0.5-3.3-1.2-4-0.6-0.7-3-1.8-5.2-2.4-2.2-0.7-4.3-1-4.8-0.7-0.4 0.2 0 1.6 0.8 3.1 0.9 1.8 1.1 3.2 0.5 3.8-0.6 0.6-0.3 1.5 0.8 2.3 1.5 1.1 1.3 1.1-1.3 0.6-1.7-0.3-4.2 0-5.7 0.6-1.4 0.7-2.7 1.6-2.7 2.1-0.1 0.5-2.9-0.2-6.4-1.6-3.4-1.4-6.9-2.4-7.7-2.2-0.8 0.2-2.1-0.2-2.8-0.9-0.6-0.8-1.9-1.4-2.7-1.4-0.8 0-1.7 1-1.9 2.2-0.2 1.3-0.4-1.1-0.5-5.2-0.2-7.3-0.1-7.5 2.6-8.7 1.5-0.6 4.4-1.6 6.3-2.2 1.9-0.6 3.6-1.1 3.7-1.1 0.2 0 0.7 1 1.2 2.2 0.5 1.3 0.5 2.7 0.1 3.3-0.6 0.7 3.1 1 10.5 1 9.4 0 11.2-0.2 11-1.5-0.1-0.8-1.1-1.8-2.1-2.1q-1.9-0.7 2.8-1.3c2.7-0.3 4.8-1.1 4.8-1.6 0-0.6-0.7-1-1.5-1-0.8 0-2-0.2-2.5-0.5-0.6-0.3-1.5-0.5-2-0.5-0.6 0-1-0.3-1-0.8-0.1-0.4 1.3-1.4 3-2.2 1.7-0.8 3.1-1.8 3-2.3 0-0.4 1-0.9 2.2-1.2 1.8-0.4 2.1-0.2 1.5 1-0.5 1.2 0 1.5 2.5 1.6 2.8 0 3 0.2 1.3 0.9-1.8 0.8-1.8 0.9 0.5 1 2.3 0.2 2.3 0.3-0.8 1.4-1.8 0.6-3.2 1.5-3.2 2.1 0 0.5 1.3 1.6 3 2.2 1.6 0.7 3 1.7 3 2.3 0 0.5-0.8 1-1.8 1-1.6 0.1-1.6 0.1 0 1 1.2 0.7 3.8 0.6 7.5-0.1 3.2-0.6 8.1-1.5 10.8-2 2.7-0.5 6.3-1.5 8-2.3 1.6-0.7 7.2-2.4 12.3-3.7 5.1-1.3 9.2-2.7 9.2-3.2 0-0.4-1.9-1.3-4.3-2.1-3.6-1.2-3.8-1.5-1.5-1.5 1.6-0.1 2.6-0.6 2.3-1.1-0.3-0.6-0.1-1 0.5-1 0.5 0 0.3-0.7-0.5-1.5-0.8-0.8-1.5-1.8-1.5-2.3 0-0.4 1.8-0.4 4 0 2.4 0.5 4.2 0.4 4.5-0.2 0.3-0.6 1.9-0.4 4.2 0.6 2.1 0.9 4.3 2.4 5 3.3 1.1 1.4 1.2 1.3 1.3-0.7 0-1.2 0.4-2.4 1-2.7 0.5-0.3 1 0.6 1 2 0 1.4 0.6 2.5 1.2 2.5 0.7 0 4.7-0.7 8.8-1.6 4.1-0.9 8.8-2.2 10.5-2.9 1.6-0.7 7.2-2.2 12.2-3.4 5.3-1.2 9.1-2.5 8.8-3.1-0.3-0.6-1.1-1-1.8-1-0.6 0-2.1-0.7-5.2-3.1l2 0.5c1.5 0.4 2 0.1 2-1.4 0-1.3-1.2-2.4-4-3.4-3.6-1.4-3.8-1.7-2.5-3.1 0.8-0.9 2.4-1.6 3.5-1.5 1.8 0.1 1.7 0.2-3 2.8l2.5 0.6c1.4 0.3 4.3 0.8 6.5 1 2.2 0.3 4.7 0.1 5.5-0.4 0.8-0.5 2.5-0.4 3.7 0.1 1.9 0.8 2.3 0.6 2.3-1.1 0-1.1 0.4-2 1-2 0.5 0 1-0.9 1-2 0-1.1 0.3-2.8 0.7-3.8 0.5-1 0.9 0.7 1.1 4.5zm-118.2 4.4c0.1 0-0.1 1.8-0.4 4.1-0.3 2.4-0.6 5.8-0.6 7.5-0.1 1.8-0.7 3.5-1.4 3.8q-1.2 0.5-0.7-1.5c0.3-1.1 0.3-2 0-2-0.3 0-1.6 1.9-3 4.2-1.4 2.4-2.5 3.7-2.5 3 0-0.6-0.9-1.2-2-1.2-1.5 0-1.8-0.5-1.4-1.8 0.3-0.9 0.9-3.6 1.3-5.9 0.3-2.3 0.8-4 1.1-3.8 0.3 0.3 0.9-0.2 1.5-1 0.5-0.8 2.6-2.4 4.5-3.4 1.9-1 3.6-1.9 3.6-2zm80.6 1.2c0.5 0.2 0.8 1 0.8 1.6 0 0.6 1.2 1.1 2.7 1.2q2.8 0.1-2.7 1.4c-3 0.8-6.2 1.4-7 1.4-0.8 0 0.2-0.8 2.3-1.7 2.2-1 3.7-2.3 3.5-3-0.2-0.8 0-1.2 0.4-0.9zm73.9 9.7c0.5 0 0.9 1.5 0.9 3.2 0 1.8 0.5 3.9 1.2 4.6 1.1 1 0.9 1.2-0.9 1.2-1.3 0-2.5-0.8-2.8-1.8-0.3-0.9-0.3-2.9 0.1-4.5 0.3-1.5 1-2.7 1.5-2.7zm-117.1 2c1.6 0 1.7 0.3 0.7 1.4-0.6 0.8-1.5 1.2-2 1-0.4-0.2-0.7-0.9-0.7-1.4 0-0.6 0.9-1 2-1zm-52.9 2.4c0.5 0.4 0.5 1.4-0.1 2.6-0.6 1.1-1.5 2-2 2-0.6 0-0.8-0.3-0.7-0.8 0.2-0.4 0.7-1.5 1.1-2.5 0.4-1 1.1-1.6 1.7-1.3zm39.7 2.5c0.2 0.9 0.9 1.9 1.6 2.3 0.6 0.4-0.7 1-2.9 1.3-2.2 0.4-4.2 0.4-4.5 0-0.3-0.3 0.5-0.9 1.8-1.3 1.3-0.4 2.1-1.2 1.7-2-0.3-0.6 0-1.4 0.6-1.6 0.7-0.1 1.4 0.4 1.7 1.3zm-76.8 16.1c0.5 0 1 2 1 4.5 0 3.1-0.4 4.4-1.3 4.2-0.6-0.2-1.3-1.7-1.5-3.3-0.2-1.6-0.1-3.5 0.2-4.2 0.3-0.6 1-1.2 1.6-1.2z"/><path class="b" d="m185 74.5c1.9 0.2 5.7 0.7 8.4 1.2 2.7 0.4 5 1.4 5.2 2 0.2 0.7 0.8 1.1 1.4 0.8 0.5-0.3 1.3 0.5 1.6 1.7 0.5 1.7 0 2.8-1.7 4.1-1.3 1-3.5 2.1-4.9 2.4-1.4 0.3-2.8 1.1-3.2 1.7-0.4 0.6-0.8 2.1-0.8 3.3 0 1.7-0.5 2.2-1.8 1.9-0.9-0.2-4.3-0.7-7.5-1-3.6-0.4-5.5-0.2-5.2 0.4 0.3 0.6-0.9 0.8-3.3 0.4-2.7-0.5-4.1-0.2-5.2 1-0.8 0.9-2.3 1.7-3.3 1.6-0.9 0-3.7 0.4-6.2 1q-4.5 1-3.9 2.2c0.3 0.8-1 2-3.3 3-2.1 0.9-3.2 1.7-2.6 1.7 0.7 0.1 4.3-0.6 8-1.5 4-0.9 8.1-1.2 9.8-0.8 1.6 0.4 4.9 1.5 7.2 2.5 2.4 1.1 4.2 2.1 4 2.3-0.1 0.2-4.8 1.6-10.5 3-5.6 1.4-11 3-12 3.5-0.9 0.5-5.1 1.6-9.2 2.5-4.1 0.9-8.1 1.6-8.8 1.6-0.6 0-1.2-1.1-1.2-2.5 0-1.4-0.5-2.3-1-2-0.6 0.3-1 1.5-1 2.7-0.1 2.1-0.2 2.1-1.3 0.7-0.7-0.9-3.1-2.5-5.5-3.5-2.3-1.1-4.4-1.6-4.7-1.2-0.3 0.5-1.2 0.1-2-0.7-1.1-1.1-2.6-1.3-5.8-0.8-2.3 0.3-4.3 1-4.5 1.5-0.1 0.4-1.7 0.8-3.5 0.8-1.7 0-4.9 0.5-7 1-2.3 0.6-3.5 1.5-3.2 2.2 0.4 0.8-0.4 1.7-1.7 2.2-2.2 0.8-2.2 0.8-0.3 1.3 1.1 0.2 3.3-0.1 5-0.6 1.6-0.6 4.3-1.1 6-1.1 1.6 0 5.6 1 8.8 2.3 3.2 1.2 5.8 2.4 5.7 2.7 0 0.3-4.1 1.6-9.2 2.9-5.1 1.3-10.7 3-12.3 3.7-1.7 0.8-5.3 1.8-8 2.3-2.8 0.5-7.6 1.4-10.8 2-3.7 0.7-6.3 0.8-7.5 0.1-1.6-0.9-1.6-0.9 0-1 1 0 1.8-0.5 1.8-1 0-0.6-1.4-1.6-3-2.3-1.7-0.6-3-1.7-3-2.2 0-0.6 1.4-1.5 3.2-2.1 3.1-1.1 3.1-1.2 0.8-1.4-2.3-0.1-2.3-0.2-0.5-1 1.7-0.7 1.5-0.9-1.3-0.9-2.5-0.1-3-0.4-2.5-1.6 0.7-1.2 0.3-1.4-1.7-0.9-2.2 0.5-2.3 0.4-1-0.8 0.9-0.7 2.6-3 3.8-5.1 1.2-2 2.4-3.7 2.7-3.7 0.3 0 0.3 0.9 0 2-0.4 1.5-0.1 1.9 1 1.5 0.8-0.3 1.5-1.3 1.5-2.3 0.1-0.9 1.6-3.2 3.4-5 1.8-1.7 4.3-3.2 5.5-3.2 1.1 0 3.8-0.8 5.8-1.9 2.1-1 5.1-2.1 6.8-2.5 1.6-0.3 3.9-0.8 5-1.1 1.1-0.2 6.5-1.8 12-3.5 5.5-1.7 12.5-3.8 15.5-4.6 3-0.8 10.4-2.6 16.5-3.9 6-1.4 15-3.9 20-5.6 4.9-1.8 10.8-3.5 13-4 2.2-0.4 5.6-0.6 7.5-0.4zm45 2.7c1.8 0.2 2.6 1 2.8 2.8 0.2 1.4 0.8 3.1 1.3 3.7 0.6 0.9 0.1 3.1-1.4 6.3-1.2 2.8-2.7 5-3.2 5-0.6 0-1.6-1.2-2.3-2.8-0.7-1.5-1.3-5.2-1.4-8.3-0.1-3.1 0.3-5.9 0.7-6.3 0.5-0.4 2.1-0.6 3.5-0.4zm-187.6 26c0.6 0.4 0.8 1.4 0.3 2.3-0.4 0.8-1.7 1.4-2.9 1.2-1.3-0.1-2.4-1-2.5-2-0.2-1.1 0.4-1.8 1.9-2 1.2-0.1 2.6 0.1 3.2 0.5zm188.6 5.8c0.5 0.8 1 2.3 1 3.2 0 1-0.5 2-1 2.3-0.6 0.3-1-1.1-1-3.3 0-2.7 0.3-3.3 1-2.2zm-175.5 26.5c0.7 0.3 2.5 0.8 4.1 1.2 1.6 0.3 3.5 1.2 4.1 2 0.7 0.7 1.3 2.5 1.2 4-0.1 1.6 0.2 4.3 0.5 6 0.5 2.8 0.2 3.5-1.7 4.4-1.8 0.9-3.7 0.5-10-1.8-4.2-1.5-7.8-3-7.8-3.3 0-0.3 1.3-1.1 2.8-1.8 1.6-0.8 4.1-1.1 5.8-0.8 2.6 0.5 2.8 0.5 1.3-0.6-1.1-0.8-1.4-1.7-0.8-2.3 0.6-0.6 0.4-2-0.5-3.8-0.8-1.5-1.2-2.9-0.8-3.2 0.4-0.3 1.2-0.3 1.8 0z"/><path class="c" d="m188.3 2c2.2 0 2.2 0 0.2 1.4-1.1 0.8-2.3 1.2-2.8 1-0.4-0.2-0.5-0.9-0.2-1.4 0.4-0.6 1.6-1 2.8-1zm8.7 14.1c0.3 0 1.5 1.2 2.8 2.7 1.3 1.5 3.3 4.4 4.5 6.5 1.7 3 2.6 3.7 4.2 3.2 1.1-0.4 4.2-1.2 7-1.7 2.7-0.6 5.8-1.4 6.7-1.9 1.5-0.7 2.1-0.3 4.7 5.6l-3.5 0.7c-2.9 0.7-3.6 1.4-4.4 4.5-0.5 2.1-1 4.2-1 4.8 0.1 0.5-0.9 1.9-2 3-1.6 1.5-2.8 1.8-5 1.2-2.1-0.5-3-0.3-3 0.5 0 0.7-1.9 1.7-4.2 2.2-2.4 0.5-4.5 1-4.8 1.1-0.3 0-3.2 0.5-6.5 0.9-3.3 0.5-6.9 1.4-8 2.2-1.1 0.8-2.9 1.4-4.1 1.4-1.1 0-2.4 0.3-2.8 0.7-0.5 0.5-2 0.9-3.4 1-1.5 0.2-5.7 1.9-9.5 3.8-3.7 1.9-7.4 3.5-8.2 3.5-0.8 0-1.7 0.7-2 1.5-0.3 0.8-1.4 1.5-2.5 1.5-1.1 0-2.1 0.5-2.3 1-0.1 0.6-2.9 1.5-6.2 2.1-3.3 0.6-6.8 1.5-7.8 2-0.9 0.5-2.5 0.9-3.5 0.9-0.9 0-3.1 0.6-4.7 1.5-1.7 0.8-4.5 1.5-6.3 1.5-1.7 0-3.4 0.3-3.6 0.7-0.2 0.5-3.4 1.6-7.2 2.5-3.8 1-9.2 1.8-11.9 1.8-2.8-0.1-6.1 0.1-7.5 0.2-2.4 0.3-2.5 0.1-3.1-13.7l9.3-3.7c5.1-2 13.6-4.8 18.8-6.2 5.2-1.4 22.5-6.1 38.5-10.4 15.9-4.4 30.3-8.6 32-9.5 1.6-0.8 5.5-2 8.5-2.6 3-0.6 6.1-1.5 6.8-1.9 0.8-0.4 1.1-1.5 0.8-2.7-0.3-1.1-2.3-4-4.5-6.5-2.7-3-3.6-4.7-2.8-5.2 0.7-0.4 1.4-0.8 1.7-0.7zm-107.5 5c2.7-0.1 7.4 0.2 10.4 0.6 4.1 0.6 5.8 1.4 7 3.2 1.2 1.9 1.3 2.5 0.3 2.8-0.6 0.2-1.2 0.9-1.2 1.5 0 0.7-2.1 1.9-4.7 2.6-2.7 0.7-7.5 1.3-10.8 1.3-3.6 0.1-6.1-0.3-6.3-1-0.1-0.6-0.7-0.9-1.2-0.6-0.6 0.3-1.8 0.2-2.8-0.2-0.9-0.3-2-0.8-2.5-1-0.4-0.1-1.2-0.3-1.7-0.3-0.6 0-0.8-0.5-0.5-1.2 0.3-0.7 0-0.9-1-0.5-1.1 0.5-1.5 0.1-1.5-1.3 0-1.1 0.9-2.5 2-3 1.1-0.6 3.7-1.4 5.7-1.8 2.1-0.5 6-0.9 8.8-1.1zm-46 23.9c0.8 0 1.5 0.4 1.5 1 0 0.5 0.7 1 1.5 1 0.8 0 1.5 0.4 1.5 1 0 0.5-1.7 1.3-3.8 1.6-2 0.3-3.8 0.4-3.8 0.2-0.1-0.2 0.2-1.3 0.7-2.6 0.5-1.2 1.5-2.2 2.4-2.2zm16.8 9c1 0 3.3 2.1 5.2 4.7 2.6 3.5 3.2 5 2.3 5.5-0.8 0.4-1.7 0-2.2-1-0.5-0.9-2.3-3.4-3.9-5.5-2.4-2.9-2.7-3.7-1.4-3.7zm18.3 13.1c0.6-0.1 0.8 0.9 0.6 2.1-0.3 1.3-0.6 4.4-0.8 7-0.3 2.9-0.9 4.7-1.5 4.5-0.7-0.1-2-2.7-3-5.7-1-3-1.7-5.6-1.6-5.7 0.1-0.1 1.3-0.6 2.7-1.2 1.4-0.5 3-1 3.6-1zm4.4-0.1c0.6 0 1 3.4 1 7.5 0 4.1-0.3 7.3-0.8 7.1-0.4-0.2-0.8-2.8-1-5.8-0.2-2.9-0.5-5.6-0.8-6.1-0.2-0.4-0.2-1.2 0.1-1.7 0.4-0.6 1-1 1.5-1zm-12.4 6.6c0.5 2.1 1.3 4.5 1.7 5.2q0.7 1.2-1.1 0.9c-0.9-0.2-2.7-0.8-4-1.5-1.2-0.7-2.9-1.2-3.7-1.2-0.8 0-1.7-0.7-2-1.5-0.3-0.8-0.2-2 0.2-2.5 0.3-0.6 1.9-1 3.5-1 1.5 0 3.1-0.5 3.5-1.2 0.5-0.7 1.2 0.4 1.9 2.8zm-23.9 50.5c0.2 0 0.3 0.5 0.3 1.1 0 0.7-1.7 1.8-3.7 2.4-2.1 0.5-4.5 0.8-5.3 0.6-0.8-0.3 0.7-1.2 3.5-2.2 2.7-1 5.1-1.8 5.2-1.9z"/><path fill-rule="evenodd" class="d" d="m192.9 9.1c0.9 0.6 1.5 2 1.3 3-0.1 1.1-0.8 1.9-1.5 1.9-0.6 0-1.9-0.5-2.7-1q-1.5-1-0.3-1c0.7 0 1.1-0.6 0.9-1.3-0.3-0.6-0.2-1.5 0.1-1.9 0.3-0.4 1.3-0.3 2.2 0.3zm37.1 40.9c0.6 0 1 1 1 2.2 0 1.3-0.3 4.4-0.7 7.1-0.7 4.3-1 4.7-3.6 4.7-1.5 0-4.1 0.7-5.7 1.5-2.3 1.2-3 2.2-3.3 8l-0.4-3.3c-0.1-1.7-0.8-3.2-1.3-3.2-0.6 0-1-2.4-1-10.5l6.6-2.5c3.6-1.4 6.8-2.8 7-3.3 0.3-0.4 0.9-0.7 1.4-0.7zm-39.8 10.6c0.5 0.3 1 1.4 0.9 2.5-0.1 1-0.4 1.7-0.9 1.4-0.4-0.2-1.6 0.5-2.7 1.6-1.1 1.2-3 2.5-4.3 3-1.2 0.5-4.6 1.1-7.5 1.4-2.8 0.3-6.8 0.8-8.7 1.1-1.9 0.3-5.8 1.2-8.5 2-2.8 0.8-18.3 5-34.5 9.5-16.2 4.4-33.2 9.1-37.8 10.5-6.1 1.8-8.2 2.9-8.3 4.1-0.1 1-0.4 0.4-0.8-1.2-0.4-1.7-0.6-3.6-0.4-4.3 0.2-0.6 0.7-1.2 1.3-1.2 0.5 0 2.7-0.7 4.7-1.7 2.1-0.9 4.2-1.5 4.8-1.5 0.5 0.1 6.8-1.3 14-3.2 7.1-1.8 21.1-5.6 31-8.4 9.9-2.7 21.4-5.7 25.5-6.6 5.5-1.3 9.5-1.5 15-1 4.9 0.4 8.3 0.3 9.7-0.5 1.3-0.6 3.2-2.7 4.4-4.6 1.1-1.9 2.5-3.3 3.1-2.9zm4.4 1.9c1.1 0.2 2.2 0.4 2.6 0.4 0.5 0.1 0.6 0.8 0.3 1.6-0.3 0.8-1.2 1.3-2 1-1.1-0.4-1.5 0.3-1.7 5l-1-3c-0.5-1.7-0.8-3.5-0.5-4.2 0.3-0.6 1.3-1 2.3-0.8zm-171.1 0.5c0.7 0 1.2 1.1 1.1 2.5-0.1 1.7 0.4 2.5 1.6 2.5 1 0 2.1 0.6 2.5 1.2 0.4 1 0.9 0.9 1.7-0.4 0.8-1.2 1.5-1.4 2.6-0.7 1.1 0.7 1.2 1.1 0.3 1.6-0.7 0.5 1.9 1.9 6.5 3.6 4.2 1.5 8.8 3.7 12.7 6.8l-4.8-0.5c-3-0.4-4.5-0.2-4.2 0.4 0.3 0.5 1.2 1 2 1 0.8 0 1.5 0.6 1.5 1.2 0.1 0.7 1.8 2.8 3.8 4.7 3.5 3.1 3.6 3.4 1.8 4.5-1.1 0.6-3.7 2.6-5.8 4.3-2.6 2.3-3.6 3.9-3.2 5 0.4 1.5-0.2 1.8-2.8 2-1.8 0.1-3.6 0.8-4 1.5-0.6 1-0.8 1-0.8 0 0-0.7-0.8-1-1.8-0.7-0.9 0.3-4.2 0.9-7.2 1.4-3 0.5-6.2 0.5-7 0.1-0.8-0.5-1.6-1.7-1.7-2.7-0.1-1-1-4.3-2-7.3-1.2-3.8-1.8-8.7-1.8-16.1 0-8 0.4-11 1.5-12.3 0.8-0.9 2.1-1.5 2.7-1.2 0.7 0.3 1.8-0.1 2.4-0.9 0.6-0.8 1.7-1.5 2.4-1.5zm174.9 4.5l0.4 2c0.2 1.1 0.1 2.2-0.2 2.5-0.4 0.3-0.8 0.3-1.1 0-0.3-0.3-0.2-1.4 0.2-2.5zm7.7 10.5c0.5 0 0.9 0.3 0.9 0.8 0 0.4-0.7 1.4-1.5 2.2-1.4 1.3-1.6 1.3-1.7-0.1-0.1-0.9 0.2-1.9 0.7-2.2 0.4-0.4 1.2-0.7 1.6-0.7zm-131.5 15.1c1 0.7 1.1 1.4 0.4 2.9-0.6 1.1-2.6 2.7-4.5 3.5-2 0.8-4 2.3-4.5 3.3-0.5 0.9-1 1.2-1 0.7 0-0.6 0.3-2.5 0.7-4.4 0.6-2.4 1.7-3.8 4.2-5.1 2.2-1.2 3.9-1.5 4.7-0.9zm103.2 1.5c2.6 0.8 5.1 1.4 5.7 1.4 0.5 0 0.3 0.4-0.5 1-0.9 0.5-3.3 0.7-5.5 0.4-2.2-0.2-5.2-0.7-9-1.6l2.3-1.3c2-1.1 3.2-1 7 0.1zm-20.1 3.4c0.3 0.8 1.1 1.8 1.7 2.2 0.6 0.5 0.1 0.8-1.2 0.8-1.6 0-2.1-0.5-1.8-1.8 0.2-0.9 0.5-1.9 0.6-2.2 0.1-0.3 0.4 0.2 0.7 1zm15.5 0.5c0.7 0.3 1.3 1.4 1.3 2.4 0 1.7-0.6 1.9-4 1.4-2.2-0.2-4.3-0.7-4.5-0.9-0.3-0.3 0.7-0.4 2.2-0.4 1.6 0 3-0.6 3.2-1.5 0.3-0.8 1-1.2 1.8-1zm-98.2 0.5c0.5 0 1.2 0.6 1.4 1.2 0.2 0.7 0 3-0.5 5-0.5 2.1-1.5 4.1-2.1 4.5-0.9 0.6-1-0.2-0.4-3.2 0.5-2.2 0.8-4.8 0.8-5.8-0.1-0.9 0.3-1.7 0.8-1.7zm-15.9 10c1.2 0.6 2 2.1 1.9 3.5 0 2 0.5 2.5 2.5 2.5 1.6 0 2.3 0.5 2 1.2-0.3 0.7-0.9 2.1-1.3 3.1-0.4 0.9-2 2.3-3.5 3-1.6 0.6-2.8 1.5-2.8 1.9 0.1 0.5 0.5 0.8 1.1 0.8 0.5 0 1.4 0.2 2 0.5 0.5 0.3 1.6 0.5 2.5 0.5 0.8 0 1.5 0.4 1.5 1 0 0.5-2.2 1.3-4.8 1.6-2.8 0.3-6.5 0-9-0.8-2.3-0.7-4.2-1.9-4.2-2.6 0-0.6-1-1.4-2.3-1.7-1.2-0.2-4.5-2-7.2-4-4.4-3-4.7-3.5-2.5-3.5 1.3 0.1 3-0.5 3.7-1.2 0.7-0.7 0.9-1.6 0.5-2.1-0.4-0.4 1.1-0.6 3.3-0.5 2.2 0.2 4.2 0.6 4.5 0.9 0.2 0.3 2.7 1.3 5.5 2.3 4.7 1.6 5 1.6 6.2-0.1 0.7-1 1-2.1 0.7-2.6-0.2-0.4-0.9-0.5-1.4-0.2-0.6 0.3-1-0.6-1-2 0.1-2.3 0.3-2.4 2.1-1.5zm58.6 0c0.7 0 1.8 0.6 2.5 1.3 0.7 0.8 1.9 1.1 2.8 0.8q1.5-0.5 0.7 0.7c-0.5 0.8-2 1-4.7 0.4-2.3-0.4-4.1-0.4-4 0 0 0.5 0.6 1.5 1.5 2.3 0.8 0.8 1 1.5 0.5 1.5-0.6 0-0.8 0.4-0.5 1 0.3 0.6-1.1 1-3.3 0.9-2-0.1-2.9-0.3-2-0.5 1-0.2 2-1.2 2.3-2.2 0.3-0.9 0-2.2-0.5-2.7-0.7-0.7-0.3-1.4 1.2-2.2 1.2-0.7 2.8-1.2 3.5-1.3zm-17.4 5.1c0.6 0.9 2.5 1.9 4.2 2.1 2.4 0.4 2.2 0.5-1.3 0.7-3.8 0.1-4.2-0.1-4.2-2.1 0-2.1 0.2-2.1 1.3-0.7zm120.9 0c0.4-0.1 0.8 0.6 0.8 1.4 0 0.8-0.9 1.7-2 2-1.3 0.3-2.1 0-2.2-0.9-0.1-0.8 0.4-1.7 1.2-1.9 0.8-0.3 1.8-0.6 2.2-0.6zm-182.1 14.1c0.8 0.2 1.9 1.1 2.6 2 0.8 1.2 2.6 1.8 4.9 1.8 2.1 0 3.5 0.2 3.3 0.4-0.2 0.2-3.2 0.6-6.7 1-4.8 0.5-6.1 0.3-5.5-0.7 0.4-0.6 0.6-2 0.4-3-0.2-1 0.2-1.6 1-1.5zm19.8 2.3c0.3 0.4 0.7 1.3 0.8 2.1 0.2 1-0.8 1.4-3.5 1.3-2-0.1-3-0.4-2.1-0.6 0.9-0.3 2.2-1.2 2.9-2 0.8-0.8 1.6-1.1 1.9-0.8z"/><path class="e" d="m210.4 7.9c2.2 1.5 5.1 4.1 6.4 5.7 1.7 2.2 2 3.1 1 3.5-0.7 0.4-2.9 1-4.8 1.4-1.9 0.4-4.9 1.5-9.5 4.3l-8.3-8.3 2.1-1.9c1.8-1.4 2.3-1.5 2.9-0.5 0.4 0.9 1.2 1.1 2.2 0.6q1.6-0.7 1.1-3.2-0.5-2.5 1.1-3.4c1.2-0.7 2.8-0.1 5.8 1.8zm-26.2 0.9c1.3 0.3 4.4 2.7 7 5.4 2.7 2.6 5.6 5.9 6.5 7.3 1 1.4 1.4 2.9 1 3.3-0.5 0.4-2.7 0.6-5 0.5-2.4-0.1-5.7 0.6-7.7 1.7-1.9 0.9-8 2.5-13.5 3.5-5.5 0.9-12 2-14.5 2.4-2.5 0.5-6.5 1.5-9 2.4-2.5 0.8-9 2.1-14.5 2.8-7.9 1-10.5 1.7-12.5 3.6-1.4 1.2-3.6 3.2-5 4.3-1.4 1.2-4.8 2.8-7.5 3.6-2.8 0.8-5.3 1.4-5.8 1.4-0.4 0-2.8 1-5.5 2.2-2.6 1.2-8.8 3.2-13.7 4.5-5 1.2-9.1 2.7-9.3 3.3-0.1 0.6-1.3 0.4-3-0.5-2.4-1.3-2.7-1.3-3 0-0.1 0.9-2.6-1-6.7-5.3-3.6-3.7-6.5-6.9-6.5-7.2 0-0.3 0.7-1.3 1.5-2.3 1.4-1.6 1.6-1.6 5.5 2.3l2.9-2.3c1.7-1.2 3.2-3 3.5-4 0.4-0.9 1.5-1.7 2.6-1.7 1.6 0 1.9 0.5 1.4 2.2-0.3 1.3 0 2.8 0.8 3.5 0.7 0.7 3.8 1.5 6.8 1.7 3 0.3 5.9 1 6.5 1.6 0.5 0.6 2.3 1 4 1 1.6 0 4.8-0.9 7-1.8 2.2-1 5-3.2 6.3-4.8 1.2-1.6 2.3-4.1 2.2-5.7q0-2.7 1.7-3.1c1-0.2 2.7-0.8 3.8-1.2 1.7-0.8 1.8-0.6 1.2 1.3-0.5 1.5-0.3 2.4 0.5 2.7 0.7 0.2 2.1-0.1 3-0.5 1.2-0.6 2-2.5 2.3-5.4 0.3-3.1 0.9-4.3 1.7-4 0.7 0.3 1.6 1.8 2 3.5 0.5 1.6 1.4 3.3 2 3.6 0.7 0.3 3-0.2 5-1 3.2-1.3 3.9-2.2 5.1-9.1l2.6 3.3c2 2.4 3 3 4.5 2.5 1-0.5 2.7-2.8 3.8-5.3 1.7-4.1 2-4.3 3.1-2.6 1.2 1.8 1.3 1.8 5.2-0.6 2.2-1.3 5.9-2.9 8.2-3.6 3.7-1 4.4-1.7 5-4.5 0.3-1.7 0.8-2.6 1-2 0.1 0.7 1.1 1.3 2.1 1.3 1 0 2.3-0.6 3-1.3 1-1 1.2-1 1.2 0 0 0.8 1.5 1.3 4 1.3 2.2 0 4.2-0.5 4.5-1 0.3-0.6-0.2-1.2-1-1.5-0.8-0.3-1.3-0.9-1.1-1.4 0.3-0.5 1.5-0.7 2.8-0.3zm-130.2 41.9c1.4 0.8 4.4 3.6 6.8 6.1 2.3 2.6 4.2 5.5 4.2 6.4 0 1-1.2 2.7-2.8 3.8-1.5 1.2-2.9 2.1-3.2 2.1-0.3 0-1.5-1.8-2.7-3.8-1.1-2.1-4.4-5.9-7.2-8.6-2.8-2.6-5-4.8-4.9-5 0.2-0.2 1.9-0.8 3.8-1.4 2.6-0.7 4.1-0.6 6 0.4zm171.7 32.3c0.2 0.8 0.2 2.6 0 4-0.3 1.5-0.4 0.9-0.4-1.5-0.1-2.2 0.1-3.3 0.4-2.5zm-32 6.5c0.2 1.6 0.2 4.6 0 6.5-0.2 1.9-0.4 0.6-0.4-3 0-3.6 0.2-5.2 0.4-3.5z"/><path fill-rule="evenodd" class="f" d="m200.3 1c1.7 0 4.1 0.6 7.2 3l-2 1.6c-1.1 0.8-1.9 2-1.8 2.5 0.2 0.5-1.1 1.5-2.7 2.1-1.7 0.7-3 1.6-3 2 0 0.5-0.8 0.8-1.8 0.8-0.9 0-2.2-1-2.7-2.2-0.6-1.3-1.8-2.2-2.8-2.1-0.9 0.2-2.4-0.4-3.2-1.2-1.2-1.2-1.3-1.8-0.3-3 0.8-0.9 1.7-1.2 2.3-0.7 0.5 0.5 3.8 0.9 7.2 1 3.7 0.1 6.3-0.2 6.3-0.8 0-0.6-0.5-0.8-1-0.5-0.6 0.3-1.2 0-1.5-0.5-0.3-0.6-1.2-0.8-2-0.5-0.8 0.3-1.5 0-1.5-0.5 0-0.6 1.5-1 3.2-1zm-18.4 9.4c0.7 0.1 1.4 0.5 1.5 1.1 0.1 0.5-1.7 1.1-4.1 1.2-2.3 0.2-4.2-0.2-4.2-0.7 0-0.6 1.2-1.2 2.7-1.4 1.6-0.2 3.4-0.3 4.1-0.2zm-15.6 3.7c0.5-0.1 0.8 0.6 0.8 1.4 0 0.9-1.7 2-4.3 2.7-2.3 0.7-6 2.3-8.2 3.6-2.9 1.7-4.3 2-5 1.3q-1-1.2 0.1-2.9c0.6-0.9 4.4-2.7 8.5-3.8 4.1-1.2 7.7-2.2 8.1-2.3zm55.5 5.6c1.7 3 2 4.1 1 5.1-0.7 0.7-2.6 1.3-4.2 1.3-1.7 0-4.8 0.6-7 1.4-2.2 0.8-4.2 1.5-4.5 1.5-0.3 0-1.3-1.3-2.3-3-1.7-2.9-1.7-3 0.5-4.5 1.3-0.8 4.8-2.2 7.8-3 3-0.8 5.7-1.8 6-2 0.2-0.3 1.5 1.1 2.7 3.2zm-79 1.2c1 0.4 1.3 1.4 0.8 3.1-0.3 1.6-0.1 2.8 0.7 3.3 1 0.6 0.8 1.1-0.7 2.2-1.1 0.9-2.2 1.5-2.5 1.5-0.3 0-1.6-1.4-2.9-3.2-2.3-3.2-2.3-3.3-0.5-4.5 1-0.7 2.3-1.6 2.8-2.1 0.5-0.5 1.5-0.7 2.3-0.3zm58.4 4.6c1 1.6 1.9 3.6 1.9 4.2 0 0.7-1.5 1.7-3.3 2.2-1.7 0.5-4.8 1.3-6.7 1.6-1.9 0.4-4.9 1.4-6.5 2.2-1.7 0.9-16.1 5.1-32 9.5-16 4.3-33.3 9-38.5 10.4-5.2 1.4-13.7 4.2-28 9.9l-0.3 12-0.6-6.4c-0.4-4.4-1.1-6.6-2.1-7-1.1-0.3-1.3 0-0.8 1.2 0.6 1.2 0.3 1.7-1 1.9-0.9 0-2.4 0.1-3.2 0-0.8 0-3.3 0.4-5.5 1-2.2 0.6-4.7 1.7-5.5 2.3-0.8 0.7-3.2 1.5-5.3 1.9-2.8 0.4-3.8 0.2-4.2-0.9-0.3-0.9 1-2.9 6.4-8l1.3 2.3c0.7 1.2 1.7 1.9 2.1 1.5 0.5-0.5 0.4-1.7-0.1-2.8-0.5-1.1-0.7-2.8-0.3-3.7 0.5-1.6 0.9-1.6 3.3-0.3 1.7 0.9 2.9 1.1 3 0.5 0.2-0.6 4.3-2.1 9.3-3.3 4.9-1.3 11.1-3.3 13.7-4.5 2.7-1.2 5.1-2.2 5.5-2.2 0.5 0 3-0.6 5.8-1.4 2.7-0.8 6.1-2.4 7.5-3.6 1.4-1.1 3.6-3.1 5-4.3 2-1.9 4.6-2.6 12.5-3.6 5.5-0.7 12-2 14.5-2.8 2.5-0.9 6.5-1.9 9-2.4 2.5-0.4 9-1.5 14.5-2.4 5.5-1 11.7-2.6 13.7-3.6 2.2-1 5.5-1.7 8-1.6 2.9 0.1 4.3-0.2 4.6-1.3 0.3-1.1 0.9-0.7 2.3 1.5zm-80.1-2.5c1.1 0 2.2 0.4 2.3 1 0.2 0.5 0 1-0.5 1-0.4 0-0.8 0.4-0.8 1 0 0.6 1.6 0.4 3.7-0.5 2.1-0.8 4.5-1.4 5.3-1.5 1.2 0 1.3 0.6 0.7 3-0.6 2.4-0.4 2.9 0.8 2.5 0.9-0.3 1.5 0.1 1.5 1 0 0.8-1.7 2.2-3.8 3.1-2 0.8-4.3 1.3-5 1-0.6-0.3-1.5-1.8-1.9-3.4-0.3-1.5-1.2-3.2-1.8-3.7-0.7-0.6-1.5-1.8-1.8-2.8-0.4-1.2-0.1-1.7 1.3-1.7zm-13.1 1c0.6 0 1.3 0.7 1.6 1.5 0.3 0.8 0.5 1.9 0.5 2.5 0 0.5-0.9 1.2-2 1.5-1.1 0.3-2 0-2-0.5 0-0.6 0.4-1 1-1 0.5 0 0.7-0.9 0.4-2-0.3-1.1-0.1-2 0.5-2zm6.6 3c0.8 0 1.7 1 2 2.2 0.2 1.3-0.1 2.6-0.8 3-0.7 0.4-0.9 1.3-0.5 2.2 0.5 1 1.5 1.4 2.5 1 1.5-0.5 1.4-0.3-0.2 1-1.1 0.8-2.6 1.3-3.3 1-0.6-0.2-1-1.3-0.7-2.4 0.3-1.1 0.3-2 0-2-0.3 0-1.5 0.5-2.8 1.1-1.6 0.8-2.5 0.8-3.2-0.1-0.7-0.8 0-2 2.3-4.1 1.8-1.6 3.9-2.9 4.7-2.9zm-65.1 20.6c0.8 0.4 1.5 1 1.6 1.5 0 0.5-1.7 1.3-3.8 1.7-2 0.5-4.6 0.6-5.7 0.2-1.5-0.5-1-0.8 2.2-1.3 2.4-0.4 4.3-1.1 4.3-1.7-0.1-0.5 0.6-0.7 1.4-0.4zm151.7 54.1c0.5 0.2 0.8 0.5 0.6 0.7-0.1 0.2-1.4 0.6-3 1-1.5 0.3-2.7 0.2-2.7-0.4 0-0.6 0.9-1.1 2.1-1.3 1.1-0.1 2.5-0.1 3 0z"/><path class="g" d="m77.2 32c0.6 0 1.3 1.2 1.5 2.7 0.2 1.6 0.1 2.9-0.2 3-0.3 0.2-1 0.1-1.5-0.2-0.6-0.3-1-1.6-1-3 0-1.4 0.5-2.5 1.2-2.5zm28.3 0c0.8 0 1.6 0.6 1.6 1.2 0.1 0.7 0 2.2-0.1 3.3-0.1 1.1-1 2.9-2.1 4-1.7 1.7-2.1 1.8-2.9 0.5-0.5-0.8-1-3.1-1-5 0-2.4 0.3-3 0.9-2 0.7 1.3 0.9 1.3 1.4-0.3 0.4-0.9 1.3-1.7 2.2-1.7zm-87.3 13.5c0.6 0.4 0.9 3 0.9 5.8-0.2 4.7 0 5.1 1.4 3.7 0.9-0.8 1.6-2.7 1.5-4.3 0-1.5 0.4-2.9 1-3.2 0.5-0.3 1 0.4 1 1.5 0 1.1 0.1 2 0.2 2 0.2 0 2.3-0.7 4.8-1.5 2.5-0.8 4.8-1.5 5.2-1.5 0.5 0 0.9 2.6 1.2 11.5l0.3-5.3c0.3-4.4 0.6-5.2 2.3-5.2 1.1 0 2 0.4 2 1 0 0.5 0.7 1 1.5 1 0.8 0 4.1 2.4 7.2 5.4 3.5 3.2 7.3 8.2 9.5 12.2 2 3.8 4.4 9.6 5.3 12.9 0.9 3.3 1.7 6.9 1.8 8 0.2 1.6 0.8 1.9 3.2 1.6 1.6-0.1 3.7-0.6 4.5-1.1 0.8-0.4 2.2-0.5 3-0.3 0.9 0.3-0.6 1.6-4 3.3-3.7 1.9-5.6 3.5-5.8 4.9-0.1 1.2-0.7 2.1-1.2 2.1-0.6 0-1-1.2-1-2.8 0.1-1.5-0.6-3.4-1.5-4.2-0.9-0.8-1.6-2.1-1.5-2.8 0-0.6-0.5-1.2-1-1.2-0.6 0-1-0.6-1-1.3 0.1-0.6-0.5-1.7-1.2-2.4-0.8-0.7-1.9-0.9-2.8-0.3-0.9 0.5-1.2 1.5-0.8 2.7 0.4 1 1.4 4.2 3.8 12.3l-4.3-0.5c-2.4-0.3-4.8-1.3-5.5-2.2-1.1-1.5-1-2 0.6-3.3 1.1-0.8 2.8-2 3.8-2.6 1.8-1.1 1.6-1.4-1.8-4.5-2-1.9-3.7-4-3.8-4.7 0-0.6-0.7-1.2-1.5-1.2-0.8 0-1.7-0.5-2-1-0.3-0.6 1.2-0.8 9 0.1l-2.5-2c-1.4-1.1-4.6-2.7-7.3-3.6-2.6-0.8-4.7-1.8-4.7-2.3-0.1-0.4 0.9-1.5 4.5-4.1h-3.3c-2.1-0.1-3.1 0.3-3 1.2 0.2 0.7 0 1.4-0.5 1.5-0.4 0.1-1.5 0.2-2.5 0.2-1.4 0-1.5-0.2-0.2-1 1.3-0.9 1.3-1.1 0-1.9-1.1-0.7-1.8-0.5-2.6 0.7-0.8 1.3-1.3 1.4-1.7 0.4-0.4-0.6-1.5-1.2-2.5-1.2-1.2 0-1.6-0.7-1.5-2.5 0.2-1.5-0.2-2.5-1-2.5-0.7 0-1.9 0.6-2.6 1.2-0.7 0.7-2 1.3-2.9 1.4-1.5 0-1.7-1.2-1.9-8.5-0.1-4.7 0.1-9.4 0.4-10.4 0.3-0.9 1-1.5 1.5-1.2zm211 1.6c0.5-0.1 1 0.3 1.3 0.9 0.3 0.5-0.2 1.6-1 2.2-0.8 0.7-4.3 2.4-7.8 3.7-3.4 1.3-6.4 2.8-6.7 3.4-0.3 0.5-1.5 0.4-3-0.3-2.4-1.2-2.4-1.3-0.5-2.3 1.1-0.6 2.4-1.3 2.8-1.7 0.5-0.3 3.8-1.8 7.5-3.2 3.7-1.4 7-2.6 7.4-2.7zm-37.9 11c1.8 0.1 4.2 0.5 5.4 0.9 2 0.8 2 0.8 0.2 1.4-1 0.3-1.9 0.9-1.9 1.3 0 0.5-0.9 0.9-2 1-1.2 0.2-2.2-0.4-2.6-1.5-0.5-1.6-0.7-1.5-2 0.3-0.8 1.1-1.4 1.4-1.4 0.7 0-0.6 0.3-1.9 0.6-2.7 0.3-0.9 1.8-1.5 3.7-1.4zm6.7 6.9c0.5 0 1 0.6 1 1.2 0 0.7-0.5 2-1 2.8-0.8 1.2-1 0.9-1-1.3 0-1.5 0.4-2.7 1-2.7zm-31 1.7c2.5 0.3 7 0.9 10 1.4 4.5 0.6 4 0.7-3 0.3-5.9-0.3-10.8 0-16 1.2-4.1 0.9-15.6 3.9-25.5 6.6-9.9 2.8-23.9 6.6-31 8.4-7.2 1.9-13.3 3.4-13.8 3.4-0.4 0-0.6-1.2-0.6-2.8 0.1-1.5 0.3-2 0.6-1.2 0.3 1.3 2.3 1 12.6-1.8 6.7-1.8 20.7-5.5 31.2-8.4 10.4-2.8 21.7-5.7 25-6.4 3.3-0.6 8-1 10.5-0.7zm25 1.3c0.5 0 1 0.3 1 0.7 0 0.5-0.5 1.5-1 2.3-0.8 1.2-1 1.1-1-0.8 0-1.2 0.4-2.2 1-2.2zm-110.3 16c0.5 0.1 1.3 0.8 2 1.8 0.7 0.9 1.3 2 1.3 2.4 0 0.5-1.5 1.3-3.3 1.8-1.7 0.6-3.3 1-3.5 1-0.1 0-0.2-0.9-0.2-2q0-2 1.5-1.5 1.5 0.5 1.5-1.5c0-1.1 0.3-2 0.7-2zm82.5 12.1c1.6 0 3.9 0.5 5.2 1.1 1.4 0.7 2.3 1.9 2 2.5-0.2 0.8-2.3 1.3-5.4 1.3-2.8 0-5.7-0.2-6.5-0.5-0.8-0.3-1.6-1.1-1.7-1.9-0.2-0.8 0.6-1.7 1.7-1.9 1.1-0.3 3.2-0.5 4.7-0.6zm-103.4 10.3c1.8 0.1 3 0.5 2.9 1.1-0.2 0.5-1.6 1.1-3 1.2-1.7 0.2-2.8-0.2-2.9-1.1q-0.1-1.3 3-1.2zm47 5.8c3 0.2 5.6 0.6 5.8 1 0.2 0.5 0.1 1.5-0.4 2.4-0.6 1.4-1.6 1.5-6.2 0.9-3-0.4-5.8-1.2-6.2-1.9-0.4-0.6-0.2-1.4 0.5-1.9 0.7-0.4 3.6-0.6 6.5-0.5zm-60.6 14.8c2.7 0 3.6 0.4 3.3 1.2-0.3 0.8-1.8 1.2-3.8 0.9q-3.2-0.3-2.2 0.7c0.5 0.5 2.9 1.3 5.2 1.6 3.3 0.5 4.4 0.3 4.8-0.9 0.3-0.8 1.2-1.3 2-1 1 0.3 1.2 1.1 0.7 2.1-0.6 1.4-1.7 1.5-7.2 0.9-3.6-0.3-7.2-1.3-8-2.1-1.3-1.3-1.3-1.6 0-2.4 0.8-0.5 3.2-1 5.2-1z"/><path fill-rule="evenodd" class="h" d="m228.7 45.1c0.7-0.1 1.3 0.2 1.3 0.6 0.1 0.5-1.2 1.3-2.7 2-1.5 0.6-5.1 1.9-7.8 2.9-2.8 1-5.3 2.3-5.7 2.8-0.4 0.6-0.8 0.1-0.8-1.2 0-1.2 0.1-2.2 0.2-2.2 0.2 0 3.4-1.1 7.3-2.5 3.8-1.3 7.6-2.4 8.2-2.4zm-19.4 6.6c0.5 0.2 0.9 1.2 0.8 2.1 0 0.9-1.5 2.4-3.3 3.4-2.5 1.2-5.2 1.5-18.8 0.8l-0.9 3.7c-0.5 2.1-1.7 4.4-2.7 5.2-1.2 1-3.4 1.2-8.3 0.8-3.6-0.4-7.7-0.9-9.1-1.2-1.4-0.3-5.2 0-8.5 0.6-3.3 0.7-15 3.6-26 6.5-11 3-25.5 6.9-32.2 8.6-10.1 2.7-12.3 3-12.3 1.8 0-1.1 2.2-2 7.7-3.3 4.3-1 10.9-2.6 14.7-3.5 3.8-0.9 7-2 7.2-2.5 0.2-0.4 1.9-0.7 3.6-0.7 1.8 0 4.6-0.7 6.3-1.5 1.6-0.9 4-1.5 5.3-1.5 1.2 0 2.4-0.5 2.7-1 0.3-0.6 1.6-1 3-1 1.4 0 6.9-1.2 12.2-2.6 8.7-2.3 11-2.5 20.5-2 8.9 0.5 11.1 0.3 12.3-0.9 0.8-0.8 1.5-2.2 1.5-3 0-0.8 0.7-2.2 1.6-3 0.9-0.9 3.4-1.5 6.3-1.5 2.6 0 5.1-0.3 5.5-0.8 0.4-0.4 2.8-1.4 5.3-2.3 2.6-0.9 5-1.4 5.6-1.2zm5 6.7l0.4 6.6c0.2 3.6 0.1 7.2-0.2 8-0.5 1.3-0.7 1.3-1.5 0-0.6-1-0.5-1.8 0.3-2.3 0.7-0.5-0.7-0.6-7.3 0.3v-5c0-5 0-5 4.1-6.3zm-22.8 4.6c0.3 0 0.6 1.1 0.8 2.5 0.1 1.3-0.1 2.5-0.5 2.5-0.4 0-0.7-1.1-0.7-2.5 0-1.4 0.2-2.5 0.4-2.5zm8.2 3.7c0.2 1.5 1.3 2.5 2.9 2.8 2.1 0.4 2.5 1 2.5 4 0 3.4-0.1 3.4-2.5 2.2-1.3-0.7-2.7-2.1-3-3.2-0.3-1.1-0.4-3.4-0.4-5 0.1-2.2 0.2-2.4 0.5-0.8zm-117.9 4.8c0.2 1.1 0.2 3.3 0 5-0.3 1.7-0.4 0.8-0.4-2-0.1-2.8 0.1-4.1 0.4-3zm124.8 0.5c0.2 0 1.6 0.4 5.5 2l-2.5 2c-1.4 1.1-2.8 2-3 2-0.3 0-0.5-1.4-0.5-3 0-1.7 0.2-3 0.5-3zm-129 11c0.2 0 1.2 0.3 2.2 0.6 1 0.3 1.6 1.4 1.5 2.5-0.1 1.1-0.8 1.7-1.5 1.4-0.7-0.4-1.6 0.7-2.2 2.7-0.6 1.8-1.4 3.3-1.9 3.3-0.6 0-1.1-0.6-1.3-1.3-0.2-0.7 0.3-1.2 1.2-1.2 0.8 0 1.4-0.8 1.4-1.8-0.1-0.9-0.1-2.7 0-4 0-1.2 0.3-2.2 0.6-2.2zm-5.7 4.4c1.3 0 2.5 0.4 2.8 0.8 0.2 0.4-0.4 1.2-1.4 1.7-0.9 0.5-3 1-4.6 1.2-1.6 0.2-3.1-0.1-3.3-0.6-0.2-0.6 0.6-1.5 1.9-2.1 1.2-0.6 3.3-1.1 4.6-1zm-8.1 8.1c0.2 1.1 0.2 3.1 0 4.5-0.3 1.4-0.5 0.5-0.5-2 0-2.5 0.2-3.6 0.5-2.5zm-4 9.5c1.3 0 2.3 0.4 2.3 1 0 0.5-0.4 1-0.8 1-0.4 0-1.4-0.5-2.2-1-1.2-0.8-1.1-1 0.7-1zm-8.5 23c0.7 0 1.9 0.4 2.8 0.9 0.8 0.5 1.1 1.4 0.7 2-0.4 0.7-2.3 0.9-5 0.5-2.3-0.4-4.7-1.1-5.2-1.6q-1.1-1.1 2.2-0.7c1.8 0.2 3.3 0 3.3-0.4 0-0.4 0.5-0.7 1.2-0.7z"/><path class="i" d="m171.3 6c0.7 0 1.7 1 2.4 2.2 0.9 1.7 0.9 2.6 0 3.5-0.6 0.7-1.9 1.3-2.9 1.3-1.1 0-1.8-0.7-1.8-2 0-1.1 0.3-2.7 0.6-3.5 0.3-0.8 1.1-1.5 1.7-1.5zm-96.3 22c0.4 0 0.6 0.4 0.4 1-0.2 0.5 0 1 0.6 1 0.5 0 1.3 0.2 1.7 0.3 0.5 0.2 1.6 0.8 2.6 1.3 0.9 0.5 2.1 0.6 2.5 0.2 0.4-0.5 1.3 0.1 1.9 1.2 0.7 1.1 1.4 4.5 1.5 7.5 0.2 3.6 0.7 5.5 1.5 5.5 0.7 0 2.9-0.8 4.8-1.8 3.2-1.6 3.5-2.1 3.4-10.7l4.8-1.4c2.6-0.8 5.2-1.8 5.7-2.2 0.6-0.5 1.7-0.9 2.5-0.9 1.4-0.1 1.4 0.1 0.1 1.5-0.8 0.9-2.3 1.6-3.3 1.5-0.9 0-2 0.8-2.3 1.7-0.6 1.6-0.8 1.6-1.5 0.3-0.6-1-0.9-0.4-0.9 2 0 1.9 0.4 4.2 1 5 0.7 1.3 1.2 1.2 3-0.5 1.1-1.1 2.1-1.6 2.1-1 0 0.5-1.1 2.3-2.3 3.9-1.3 1.6-4.1 3.8-6.3 4.8-2.2 0.9-5.4 1.8-7 1.8-1.7 0-3.5-0.4-4-1-0.6-0.6-3.5-1.3-6.5-1.5-3-0.3-6.2-1.2-7-2-1.3-1.4-1.3-1.9 0.5-4.9 1.1-1.9 2.6-3.3 3.2-3 0.7 0.2 1.3 0.1 1.3-0.4 0-0.4-0.4-1.7-0.8-3-0.4-1.3-1.2-2.1-1.7-1.8-0.6 0.2-1.6-0.4-2.3-1.5-0.6-1-0.9-2.1-0.5-2.4 0.3-0.3 1-0.5 1.3-0.5zm-10.6 8.3c0.6 0.2 1.5 1.3 2.1 2.4 0.5 1.1 1.6 1.8 2.2 1.6 0.7-0.2 1.3 0 1.3 0.4 0 0.5-0.4 1.2-0.8 1.8-0.4 0.5-2 2-6.2 5.5l-2-2c-1.1-1.1-2-2.5-2-3 0-0.6 0.7-1.2 1.5-1.5 0.8-0.3 1.4-1.3 1.3-2.3-0.1-1 0.2-2.2 0.7-2.6 0.5-0.3 1.3-0.5 1.9-0.3zm134.3 25.1c0.3 0.6 0.2 1.3-0.1 1.6-0.3 0.3-1.4 0.1-2.3-0.4-1.7-0.8-1.7-0.9 0.1-1.6 1.2-0.4 2.1-0.3 2.3 0.4zm-111 17.1c0.2 1.1 0.2 2.7 0 3.5-0.3 0.8-0.5-0.1-0.5-2 0-1.9 0.2-2.6 0.5-1.5zm-11 15.5c0.1 0 0.3 1.1 0.3 2.5 0 1.4-0.5 2.5-1 2.5-0.6 0-1.1-0.8-1.2-1.8-0.1-1 0.2-2.2 0.7-2.5 0.5-0.4 1-0.7 1.2-0.7z"/><path class="j" d="m118.2 31.6c0.6 0.3 1 1.2 0.9 2-0.1 0.8-0.8 1.6-1.6 1.9-0.8 0.3-1.8-0.2-2.3-1.1-0.4-1-0.2-1.9 0.7-2.4 0.7-0.5 1.8-0.6 2.3-0.4zm107-0.5c1.2-0.1 2 0.8 2.4 2.6 0.3 1.6 1 3.8 1.5 5 0.5 1.3 0.9 3 0.9 3.8 0 0.8-0.6 1.5-1.3 1.5-0.6 0-4.5 1-8.5 2.2-5.9 1.9-7.4 2.7-7.8 4.5-0.2 1.3-0.9 2.3-1.4 2.3-0.6 0-1.1-0.9-1.3-1.9-0.2-1.8-0.8-1.7-12.2 1.3-6.6 1.8-13.9 4.3-16.3 5.4-2.3 1.2-5.2 2.2-6.5 2.2-1.2 0-6.3 1-11.2 2.1-5 1.1-9.2 1.8-9.5 1.5-0.3-0.3 0.4-0.8 1.5-1.2 1.1-0.3 5.1-2.1 9-4 3.8-1.9 8.2-3.5 9.7-3.7 1.4-0.1 2.9-0.5 3.4-1 0.4-0.4 1.7-0.7 2.8-0.7 1.2 0 3-0.6 4.1-1.4 1.1-0.8 4.7-1.7 8-2.2 3.3-0.4 6.2-0.9 6.5-0.9 0.3-0.1 2.4-0.6 4.8-1.1 2.3-0.5 4.2-1.5 4.2-2.2 0-0.8 0.9-1 3-0.5 2.2 0.6 3.4 0.3 5-1.2 1.1-1.1 2.1-2.5 2-3 0-0.6 0.5-2.7 1.1-4.7 0.6-2 1.8-3.9 2.7-4.1 0.9-0.3 2.5-0.5 3.4-0.6zm-138.8 1.9c1.3 0 1.6 1.1 1.6 5.5 0 5.5 0 5.5 2.7 5 2.7-0.5 2.7-0.5 0.8 1-1.1 0.8-2.7 1.5-3.5 1.5-1.1 0-1.6-1.5-1.9-5.6-0.2-3.1-0.6-6-0.8-6.5-0.3-0.5 0.2-0.9 1.1-0.9zm-10.7 4.7c0.2 0.2 0.1 0.7-0.2 1.3-0.3 0.5-1.4 1-2.5 1-1.1 0-2-0.5-2-1 0-0.6 1-1.1 2.2-1.3 1.3-0.1 2.4-0.1 2.5 0zm-14.2 39.4l2-0.1c1.1 0 3.1 0.8 4.5 1.7 1.4 1 2.7 1.7 3 1.6 0.3-0.1 1.1 0.2 1.9 0.5 1 0.5 1.1 1.4 0.3 3.7-0.5 1.6-1.5 2.9-2.1 2.7-0.6-0.1-2 0.2-3.1 0.8-1.6 0.8-2.2 0.6-3-1-0.6-1.1-1-2.5-1-3 0-0.6 0.4-0.8 1-0.5 0.5 0.3 1.2-0.1 1.4-0.8 0.2-0.6 0.1-1.7-0.2-2.3-0.4-0.6-1.6-1.6-2.7-2.2zm36 1.5c1.1 0.2 2.2 0.3 2.5 0.4 0.3 0.1-1.8 0.8-4.5 1.6-2.8 0.7-5.6 1.4-6.3 1.4-0.6 0-1.2-0.6-1.2-1.5 0-0.9 0.7-1.3 1.7-1.1 1 0.2 2.7 0 3.8-0.3 1.1-0.4 2.9-0.6 4-0.5zm-18.2 0.5c0.5 0 0.9 1.1 1 2.4 0.2 1.8-0.2 2.4-1.3 2-0.8-0.3-1.8 0.1-2.2 0.8-0.6 0.9-0.8 0.7-0.8-0.5 0-1 0.6-2.4 1.2-3.2 0.7-0.8 1.7-1.5 2.1-1.5zm-21.5 6.3c1.3 1 1.2 1.2-0.4 1.5-1 0.2-2.2 0.9-2.6 1.5-0.5 0.7-0.9 0.3-1-1-0.1-1.2 0.4-2.4 1.2-2.6 0.7-0.3 2 0 2.8 0.6zm161.9 5.1c0.2 3.3 0.2 9 0 12.5-0.2 3.6-0.3 0.9-0.3-6 0-6.8 0.1-9.8 0.3-6.5zm11 7c0.2 1.7 0.2 4.8 0 7-0.2 2.2-0.4 0.9-0.4-3 0-3.8 0.2-5.6 0.4-4z"/><path class="k" d="m47.1 96c0.5 0 1.1 0.6 1.2 1.2 0.2 0.7-0.3 1.7-1 2.3-0.8 0.5-1.5 3-1.7 5.5-0.2 3.5-0.6 4.6-2.2 4.9-1 0.2-2.5 1-3.2 1.7-0.6 0.8-1.1 1.7-1.1 2.1 0.1 0.5-0.5 1.1-1.2 1.4-0.8 0.4-2.7 1.1-4.3 1.5-2 0.6-3.3 1.9-4 4.1-0.6 1.8-2.2 4-3.6 5-1.4 0.9-3 2.4-3.6 3.3-1.1 1.3-1.6 1.3-5.5-0.3-2.4-1-5.5-2.4-6.9-3.1-1.4-0.6-3.4-2.9-4.5-5-1.1-2.2-2.6-4.1-3.3-4.3-0.6-0.1-1.2-1.2-1.2-2.3 0-1.1 0.4-2.2 1-2.5 0.5-0.3 0.9-1.3 0.7-2.3-0.1-1.3 0.6-1.8 3.3-2.1 1.9-0.2 4.5-1 5.7-1.8 1.5-1 3.3-1.3 5.5-0.9 1.8 0.4 4.8 0.7 6.5 0.7 2.5-0.1 3.4 0.4 3.8 1.9 0.4 1.4 0.9 1.7 1.7 1.1 0.9-0.7 1.7-0.4 2.5 1 0.7 1 2 1.7 2.8 1.4 0.9-0.3 1.5-1.7 1.5-3.3 0-2.2 0.2-2.5 1.2-1.4 0.7 0.7 2.1 1.2 3 1.2 1 0 2.3-1.2 2.8-2.8 0.6-1.5 0.9-3.2 0.7-3.7-0.3-0.6 0.2-1.8 1.1-2.8 0.8-0.9 1.9-1.7 2.3-1.7zm16.4 12.5c0 0.1-0.4 1.7-1.9 7l-0.6-3c-0.4-2.1-0.1-3.2 0.9-3.6 0.8-0.4 1.5-0.5 1.6-0.4zm-9.3 2.6c2.3-0.1 2.8 0.3 2.8 2.4 0 1.4-0.6 2.5-1.3 2.5-0.6 0-2.9-0.6-4.9-1.3-3.6-1.2-3.6-1.2-1.5-2.4 1.2-0.6 3.4-1.1 4.9-1.2z"/><path fill-rule="evenodd" class="l" d="m228.5 44.1c1.1 0.1-1.8 1.4-6.5 3-4.7 1.5-8.6 2.9-8.8 2.9-0.1 0-0.2 0.9-0.2 2 0 1.1-0.5 2.2-1 2.5-0.6 0.3-1.3 0.2-1.8-0.1-0.4-0.3-0.2-0.8 0.4-1.2 0.6-0.4 1.4-1.6 1.7-2.7 0.4-1.4 2.6-2.6 7.4-4.2 3.7-1.2 7.7-2.2 8.8-2.2zm-19.2 5.6c0.5 0.3 0.9 0.8 0.8 1.4-0.1 0.5-0.4 0.8-0.9 0.7-0.4-0.1-2.8 0.4-5.5 1.1-2.6 0.8-5 1.8-5.2 2.2-0.3 0.5-2.7 0.9-5.4 0.9-3 0-5.6 0.6-6.5 1.5-0.9 0.8-1.6 2.1-1.6 2.7 0 0.7-0.5 2-1 2.8-0.7 1.2-3.5 1.5-13.7 1.5-7 0-14.6 0.4-16.8 0.8-2.2 0.3 0.9-0.7 7-2.3 6-1.6 12.2-2.9 13.7-2.9 1.6-0.1 4.7-1.1 7-2.3 2.4-1.2 9.4-3.5 15.7-5.3 6.3-1.7 11.8-3 12.4-2.8zm0.2 6.3c0.5 0 1.9 0.6 3 1.4 1.9 1.3 1.8 1.5-2 2.5-2.2 0.6-5.1 0.8-6.5 0.4-2.5-0.6-2.5-0.6 1-2.4 1.9-1 3.9-1.8 4.5-1.9zm-9.8 2c0.5 0 0.7 1.6 0.6 3.5-0.2 2.5-0.8 3.5-2 3.5-1.3 0-1.4-0.3-0.5-1.3 0.7-0.6 1.2-2.2 1.2-3.5 0-1.2 0.3-2.2 0.7-2.2zm3.5 6c1 0 2.1 1 2.4 2.2 0.4 1.3 0.6 4.1 0.5 6.3 0 2.2-0.3 4.2-0.6 4.5-0.3 0.3-0.5-1.2-0.5-3.3 0-3.2-0.4-3.8-2.5-4.2-1.5-0.3-2.6-1.2-2.7-2.3-0.1-1 0.2-2.2 0.7-2.5 0.5-0.4 1.7-0.7 2.7-0.7zm-122.6 4c0.2 0 0.4 1.5 0.4 3.2-0.1 2.7-0.2 3-1 1.5-0.6-0.9-0.7-2.4-0.4-3.2 0.3-0.8 0.8-1.5 1-1.5zm131.9 4.7c0.5 0.7 1.3 0.9 1.8 0.5 0.4-0.4 0.7-0.1 0.7 0.5 0 0.7-0.3 1.3-0.8 1.3-0.4 0-2.1-0.6-3.7-1.4-2.6-1.2-2.7-1.5-1-1.8 1.1-0.2 2.4 0.2 3 0.9zm-131.1 6.3c0.8 0 1.4 0.9 1.5 2 0.1 1.2-0.5 2-1.4 2-0.8 0-1.5-0.9-1.5-2 0-1.1 0.6-2 1.4-2zm-18.9 14c0.3 0 0.5 2.7 0.5 6 0 5.7-0.1 6-2.5 6-1.4 0-2.5-0.5-2.5-1 0-0.6 0.9-1 2-1 1.7 0 2-0.7 2-5 0-2.8 0.2-5 0.5-5zm166.2 3.5c0.2 1.1 0.2 3.1 0 4.5-0.2 1.4-0.4 0.5-0.4-2 0-2.5 0.2-3.6 0.4-2.5z"/><path class="m" d="m42.5 68l-2.5 2c-1.4 1.1-2.7 2-3 2-0.3 0-0.6-0.9-0.7-2-0.1-1.6 0.4-2 6.2-2zm178.1 8.8c0.8 0.9 1.3 2.4 1.4 3.2 0 1.3-0.1 1.3-0.9 0-0.6-1.1-1-1.2-1.5-0.3-0.3 0.7-1.1 1.3-1.6 1.3-0.6 0-0.6-1.1 0.2-2.9 1-2.7 1.3-2.8 2.4-1.3zm-168.2 22.7c2.8 0.3 5.4 1.1 5.8 1.8 0.3 0.7 1.3 0.9 2.2 0.4 0.9-0.4 1.6-0.3 1.6 0.3 0 0.5-0.8 1-1.8 1-1.2 0-1.9 1.1-2.5 4-0.6 3.6-1 4-3.7 4-1.7 0-3.2 0.4-3.5 1-0.3 0.5-2.4 0.9-4.7 0.7-2.3-0.1-4.3-0.8-4.5-1.5-0.2-0.6 0.7-1.3 1.9-1.5 1.8-0.2 2.2-0.9 2.4-4.4 0.1-2.3 0.6-4.7 1-5.3q0.7-1.2 5.8-0.5zm12.3 1c0.2 0.5-0.1 2.3-0.7 4-0.6 1.6-1.2 2.8-1.5 2.5-0.3-0.3 0-2.1 0.7-4 0.6-1.9 1.3-3.1 1.5-2.5zm-29.5 2.6c0.5-0.1 0.8 1.5 0.8 3.4 0 2.2-0.5 3.7-1.5 4-0.8 0.3-2.2-0.4-3-1.5-1.1-1.4-1.7-1.7-2.1-0.8-0.5 1-0.9 0.9-1.5-0.2-0.5-0.8-1-1.8-1.1-2.2-0.1-0.3 1.5-1 3.7-1.6 2.2-0.5 4.3-1 4.7-1.1zm-33.2 5.9c0.4 0 0.6 0.6 0.5 1.2-0.1 0.7-0.7 1.4-1.4 1.5-0.6 0.2-0.8-0.3-0.5-1.2 0.3-0.8 0.9-1.5 1.4-1.5z"/><path class="n" d="m116.2 12.5c0.5 0.6 0.6 2.6 0.3 4.5-0.4 1.9-1 3-1.3 2.3-0.4-0.7-0.6-2.7-0.4-4.5q0.4-3.3 1.4-2.3zm13.5 9.6c0.1-0.1 0.1 0.4 0 1-0.1 0.6-1.9 1.7-4 2.5-2 0.8-3.6 1-3.5 0.6 0.1-0.5 1.1-1.4 2.2-2 1.2-0.6 2.8-1.3 3.6-1.5 0.8-0.3 1.6-0.6 1.7-0.6zm-40.3 11.5c0.8 0.4 1.5 0.9 1.6 1.3 0 0.3-0.4 1-0.9 1.6-0.5 0.5-1.1 1.9-1.4 3-0.3 1.1-0.5 0.1-0.6-2.2-0.2-3.4 0.1-4.1 1.3-3.7zm-67.4 9.4c0.5 0 1 0.8 0.9 1.7 0 1-0.4 3.6-0.8 5.8-0.9 4-0.9 3.9-1-1.8 0-3.2 0.3-5.7 0.9-5.7zm-6.1 2.4c0.3 0.2 0.5 1.8 0.3 3.5-0.1 1.7-0.4 3.1-0.7 3.1-0.3 0-0.5-1.6-0.4-3.6 0.1-1.9 0.4-3.3 0.8-3zm69.2 21.6c0.4 0 1.1 2.8 1.4 6.2 0.3 3.5 0.5 8 0.5 10 0 2.1-0.5 4-1 4.3-0.6 0.3-1.6-0.2-2.3-1-1-1.3-0.9-1.6 0.3-1.5 1.3 0 1.4-1.4 0.9-9-0.4-4.9-0.3-9 0.2-9zm-20.9 11.5c0.7 0.2 1.6 1 2 1.7 0.3 0.7 0.3 2-0.2 2.8-0.6 1.2-1 1.1-1.9-0.8-0.6-1.2-1.1-2.6-1.1-3.2-0.1-0.5 0.5-0.7 1.2-0.5zm9.5 1.5c1.7 0 2.3 0.6 2.4 2.2 0.1 1.3 0.3 3.5 0.5 5 0.2 1.6 0.1 2.8-0.4 2.8-0.4 0-1.3-0.9-2-2-0.6-1.1-0.9-3-0.6-4.3 0.4-1.3 0.1-2.5-0.8-2.9q-1.3-0.8 0.9-0.8zm-16.5 7c1.5 0 1.8 0.3 1 0.8-0.6 0.4-1.6 1.4-2.2 2.2-0.8 1.2-1 1.1-1-0.8 0-1.6 0.6-2.2 2.2-2.2z"/><path class="o" d="m146.6 8.2c0.2 2.1 0.8 3.8 1.4 3.8 0.5 0 1 1.1 1 2.5 0 1.6 0.6 2.5 1.5 2.5 0.8 0 4.1-0.7 7.2-1.6 3.2-0.9 6.4-2 7-2.5 0.8-0.5 1.5-0.5 1.8 0.1 0.3 0.5-1.9 1.7-4.8 2.5-2.8 0.8-6.5 1.8-8.1 2.2-1.6 0.4-3 1.1-3.2 1.5-0.2 0.5-1.1 0.8-1.9 0.8-0.9 0-1.5-0.9-1.5-2.3 0-1.2-0.2-4.7-0.4-7.7-0.2-3-0.1-3.8 0-1.8zm-11.9 2.8c0.2 1.4 0.9 3.5 1.6 4.7 0.7 1.3 0.8 2.6 0.4 3-0.4 0.5-1.2 0.1-1.7-0.7-0.6-0.8-0.9-3.3-0.8-5.5 0-2.5 0.2-3.1 0.5-1.5zm43.7-1.8c1.5-0.1 2.4 0.2 2.1 0.8-0.3 0.5-1.6 1-3 1-1.4 0-2.3-0.3-2.1-0.8 0.2-0.4 1.6-0.8 3-1zm-33.7 7.7c0.2 3.7 0.7 5.9 1.3 5.6 0.5-0.3 1 0.1 1 0.7 0 0.7-0.5 1.9-1.2 2.5-0.7 0.7-1.6 1.3-2 1.3-0.4 0-0.6-1.4-0.3-3 0.3-1.7 0.2-3-0.3-3-0.4 0-0.7-1.9-0.8-4.3 0-2.3 0.5-4.6 1-5q1.1-0.8 1.3 5.2zm-12.7-1.9c0.6 0 1 2.8 1 6.2 0 4.5 0.3 5.9 1 4.8 0.8-1.2 1-1.1 1 0.7 0 1.3-0.2 2.3-0.5 2.3-0.3 0-1.2 0.2-2 0.5-1.2 0.4-1.4-0.1-0.8-2.5 0.5-1.9 0.4-3-0.2-3-0.6 0-0.9-1.9-0.8-4.3 0-2.3 0.1-4.3 0.2-4.5 0.1-0.1 0.5-0.2 1.1-0.2zm8.3 5.1c0.4 0 0.7 0.2 0.7 0.6 0 0.5-1.1 1.4-2.5 2-1.4 0.7-2.7 1.3-3 1.3-0.3 0-0.5-0.7-0.5-1.5 0-0.8 1-1.7 2.2-1.9 1.3-0.2 2.6-0.4 3.1-0.5zm-89 23.3c1.2 0.3 2.5 0.5 2.9 0.5 0.5 0.1 0.8 0.8 0.8 1.6 0 1.1-1.2 1.5-5 1.5-3.8 0-5-0.4-5-1.5 0-0.9 0.6-1.3 1.5-1 0.8 0.3 1.7 0.1 2-0.5 0.3-0.5 1.6-0.8 2.8-0.6zm-14.1 2.6c0.4 0 1.5 0.2 2.3 0.5 0.8 0.3 1.5 0.9 1.5 1.5 0 0.5-1.1 1-2.5 1-2.3 0-2.5 0.4-3.1 10.5l-0.4-6.1c-0.2-3.3 0-6.4 0.5-6.7 0.5-0.4 1.2-0.7 1.7-0.7zm163.3 13c0.3 0 1.7 0.4 3.2 1 2.2 0.8 2.7 1.5 2.5 3.7-0.2 2.2-0.4 2.5-1.1 1.3-0.7-1-1.6-1.3-3-0.8-1.8 0.7-2.1 0.4-2.1-2.2 0-1.7 0.2-3 0.5-3zm-115.1 5.2c0.6 0.3 1.1 2.8 1.2 5.9 0.1 3.9 0 4.3-0.3 1.4-0.2-2.2-0.9-4.5-1.4-5-0.5-0.6-0.9-1.4-0.8-1.8 0.1-0.5 0.6-0.7 1.3-0.5zm133.2 2.8c0.2 0 0.4 2.5 0.4 5.5 0 3-0.3 5.3-0.8 5.1-0.4-0.2-0.5-2.7-0.4-5.5 0.2-2.8 0.6-5.1 0.8-5.1zm-7.3 3.1c2.7 0 2.9 0.2 1.2 0.9-1.1 0.5-2.8 0.9-3.8 0.9-0.9 0.1-1.5-0.4-1.2-0.9 0.4-0.6 2-1 3.8-0.9zm7.3 11.9c0.1 0.8 0.4 8.6 0.6 17.2 0.2 8.7 0 15.8-0.5 15.8-0.4 0-0.6-7.8-0.6-17.3 0.1-9.4 0.3-16.5 0.5-15.7zm-195 45c0.2 0 0.3 4.2 0.1 18.5l-0.7-8c-0.3-4.4-0.4-8.6-0.2-9.3 0.2-0.6 0.6-1.2 0.8-1.2zm-4.9 10c0.2 1.4 0.2 4.1 0 6-0.2 1.9-0.4 0.8-0.4-2.5 0-3.3 0.2-4.9 0.4-3.5z"/><path class="p" d="m196.8 0.1c2.6 0.1 3.7 0.3 2.4 0.5-1.2 0.2-2.2 1.1-2.2 1.9 0 0.8-0.7 1.5-1.5 1.5-0.8 0-1.5-0.5-1.5-1 0-0.6-0.7-1-1.5-1-0.8 0-1.3-0.5-1-1 0.4-0.6 2.7-0.9 5.3-0.9zm-1.7 13c0.3-0.1 0.7 0.8 0.8 1.9 0 1.1-0.2 2-0.7 2-0.4 0.1-1.3-0.6-2-1.5-1-1.2-1-1.6 0-1.9 0.7-0.3 1.6-0.5 1.9-0.5zm-171.1 29.9c0.5 0 1 1.9 0.9 4.2-0.1 3.7-0.2 3.9-0.9 1.8-0.4-1.4-0.8-3.3-0.9-4.3-0.1-0.9 0.3-1.7 0.9-1.7zm-4.3 5.5c0.2 1.1 0.2 3.3 0 5-0.2 1.7-0.4 0.8-0.4-2 0-2.8 0.2-4.1 0.4-3zm31.8-1.5c2.1 0.1 4.1 1.2 6.5 3.5 1.9 2 2.9 3.5 2.2 3.5-0.6 0-3.6-1.6-6.5-3.5-5-3.4-5.1-3.5-2.2-3.5zm16.5 17c0.5 0 1.2 0.4 1.5 1 0.3 0.5 0.2 1.6-0.1 2.2-0.5 1-0.9 0.9-1.5-0.2-0.5-0.8-0.9-1.8-0.9-2.3 0-0.4 0.4-0.7 1-0.7zm2.7 5c0.5 0 1.4 1.1 2 2.5 0.8 1.5 0.9 2.5 0.3 2.5-0.6 0-1 0.8-1.1 1.7 0 1.5-0.2 1.5-0.9-0.2-0.5-1.1-0.9-3-0.9-4.3-0.1-1.2 0.2-2.2 0.6-2.2zm147 19c0.2 3.6 0.2 9.6 0 13.5-0.2 3.8-0.3 0.9-0.3-6.5 0-7.4 0.1-10.6 0.3-7zm14 8c0.2 0.8 0.2 2.6 0 4-0.3 1.5-0.4 0.9-0.4-1.5-0.1-2.2 0.1-3.3 0.4-2.5z"/><path class="q" d="m73.2 74c0.6 0 1.3 1.2 1.5 2.7 0.2 1.6 0.1 2.9-0.2 3-0.3 0.2-1 0.1-1.5-0.2-0.6-0.3-1-1.6-1-3 0-1.4 0.5-2.5 1.2-2.5zm154.5 24.5c0.2 1.1 0.2 3.1 0 4.5-0.2 1.4-0.4 0.5-0.4-2 0-2.5 0.2-3.6 0.4-2.5zm-208 32.5c0.5 0 0.7 1.8 0.5 4-0.1 2.2-0.4 4-0.7 4-0.3 0-0.5-1.8-0.5-4 0-2.2 0.3-4 0.7-4z"/><path class="r" d="m118.7 10c0.7 0 1.5 0.8 1.7 1.7 0.3 1 0.7 2.8 1 4 0.5 1.8 0.2 2.2-0.9 1.8-0.8-0.3-1.5-1.4-1.5-2.5 0-1.1-0.7-2-1.5-2-0.8 0-1.6-0.4-1.7-0.8-0.1-0.5 0.2-1.2 0.7-1.5 0.5-0.4 1.4-0.7 2.2-0.7zm-23 25c0.2 1.4 0.2 3.8 0 5.5-0.2 1.6-0.4 0.5-0.4-2.5 0-3 0.2-4.4 0.4-3zm-6 4c0.2 1.4-0.1 2.9-0.8 3.5-0.9 0.7-1 0.5-0.5-0.8 0.3-0.9 0.7-2.5 0.7-3.5 0.1-0.9 0.4-0.6 0.6 0.8zm-5 38.5c0.2 3.8 0.2 7.1 0.1 7.3-0.2 0.1-1.2-0.1-2.3-0.4-1.8-0.6-1.9-0.7-0.3-1.5 1.4-0.7 1.8-2.3 2-6.7 0.2-5.5 0.2-5.4 0.5 1.3zm-5.7-5.5c0.5 0 1.2 0.7 1.5 1.5 0.3 0.8 0.5 2.4 0.5 3.5 0 1.1-0.7 2-1.5 2-1 0-1.5-1.1-1.5-3.5 0-1.9 0.4-3.5 1-3.5zm-21.3 16c0.5 0 1.5 0.5 2.3 1 1 0.6 1.5 2.7 1.5 6.7 0 4.7-0.3 5.8-1.8 6-1.3 0.2-2-0.9-2.9-5-0.6-2.8-0.8-6-0.5-7 0.4-0.9 1-1.7 1.4-1.7zm171.9 7c0.2 0 0.4 3 0.4 6.7 0 4.4-0.3 6.4-0.9 5.8-0.6-0.6-0.7-3.5-0.4-6.8 0.3-3.1 0.7-5.7 0.9-5.7z"/><path class="s" d="m133.9 6c0.4 0 0.6 2.1 0.3 4.7-0.4 3.5-0.1 5.6 1.1 7.5 0.9 1.6 1.2 2.8 0.7 2.8-0.6 0-0.8 0.8-0.6 1.7 0.1 1-0.3 2.4-1 3-1.2 1.1-1.4-0.4-1.4-9.2 0-5.8 0.4-10.5 0.9-10.5zm12.2 4.5c0.5 2.7 0.9 5.9 1 7 0 1.1 0.5 2.3 1.2 2.6 0.8 0.5 0.4 1.1-3.3 2.9l0.1-8.8c0.2-8.3 0.2-8.5 1-3.7zm-28 2.5c0.5 0 0.9 0.9 0.9 2 0 1.1 0.7 2.2 1.5 2.5 0.9 0.3 1.4 1.5 1.2 3-0.1 1.4-0.7 2.5-1.2 2.5-0.6 0-0.9 2-0.8 4.5 0.2 2.5 0 4.5-0.5 4.5-0.4 0.1-1.2-0.5-1.8-1.2-0.7-0.7-1.3-3.3-1.5-5.8-0.1-2.5 0.1-6.2 0.5-8.3 0.4-2 1.2-3.7 1.7-3.7zm-25.4 20c2.1 0 2.3 0.5 2.3 5q0 5-1.3 5c-0.6 0-2.3 0.3-3.7 0.7-2.1 0.5-2.3 0.4-1.3-0.8 0.6-0.8 1.3-3.3 1.5-5.6 0.3-3.7 0.6-4.3 2.5-4.3z"/><path class="b" d="m34.7 97c2.1 0 2.4 0.3 1.3 0.9-0.8 0.5-2.1 0.7-2.8 0.5-0.6-0.2-1.2-0.6-1.2-0.9 0-0.3 1.2-0.5 2.7-0.5zm90.3 18.5c2.6 0 5.2 0.4 5.7 0.9 0.4 0.5-0.7 0.5-2.7 0.2-2.7-0.6-3.2-0.5-2 0.4 1.2 0.9 0.9 1-1.5 0.5-1.7-0.3-3.3-0.9-3.7-1.3-0.4-0.4 1.5-0.7 4.2-0.7zm6.2 3.7c0.4 0.2 0.8 0.7 0.8 1.3 0.1 0.5-0.9 1.2-2.1 1.3-2 0.3-2.1 0.2-0.9-1.2 0.7-0.9 1.7-1.5 2.2-1.4zm-59.3 16.8c1.2 0 2.1 0.4 2.1 1 0 0.5-0.7 1-1.5 1-0.8 0-1.8-0.5-2.1-1-0.3-0.6 0.3-1 1.5-1z"/><path class="d" d="m78.5 41.9c0.5 0.6 0.7 1.3 0.2 1.6-0.4 0.3-1.2 0.3-1.7 0-0.6-0.3-0.7-1-0.3-1.6 0.5-0.8 1-0.8 1.8 0z"/><path class="e" d="m210.5 62c1.4 0 2.5 0.4 2.5 1 0 0.5-0.9 1.4-2 2-1.1 0.5-2.2 1-2.5 1-0.3 0-0.5-0.9-0.5-2 0-1.5 0.7-2 2.5-2z"/><path class="h" d="m167.7 98c2.2 0 2.5 0.2 1.3 1-0.8 0.5-2.1 1-2.8 1-0.6 0-1.2-0.5-1.2-1 0-0.6 1.2-1 2.7-1zm-57 15.1c0.2 0 0.3 0.3 0.3 0.9 0 0.5-1.5 0.9-6.5 0.8l3-0.8c1.6-0.4 3.1-0.8 3.2-0.9z"/><path class="i" d="m171.8 14c1.5 0.1 1.4 0.3-0.3 1.5-1.1 0.8-2.1 1.3-2.3 1-0.1-0.3 0-1 0.3-1.5 0.4-0.6 1.4-1 2.3-1zm-116.6 67.6c0.4 0.2 0.6 0.8 0.3 1.4-0.3 0.5-1.2 1-2 1-0.8 0-1.6-0.4-1.7-0.9-0.1-0.5 0.4-1.1 1.2-1.4 0.7-0.2 1.7-0.3 2.2-0.1z"/><path class="m" d="m44.4 69.7c0.7 0.4 0.5 0.9-0.7 1.4-0.9 0.5-2 0.6-2.5 0.3-0.4-0.3-0.1-0.9 0.7-1.4 0.7-0.5 1.9-0.6 2.5-0.3zm-22.1 38c0.5 0.2 0.9 0.8 0.8 1.4-0.1 0.5-1.1 0.9-2.3 0.9-1.7 0-1.9-0.2-0.8-1.4 0.7-0.8 1.7-1.2 2.3-0.9zm2.8-0.7c0.8 0 1.4 0.6 1.3 1.2 0 0.7-0.5 1.2-1 1-0.5-0.1-1.1-0.7-1.3-1.2-0.2-0.6 0.3-1 1-1zm-15.6 2.6c1.1 0.3 3 0.7 4.2 0.8 1.3 0 2.3 0.8 2.4 1.6q0.1 1.5 0.5 0.2c0.2-0.6 0.7-1.2 1.1-1.2 0.5 0 0.9 0.6 1.1 1.2 0.2 0.7 0.5 3.9 0.8 7 0.3 4 0 6-0.9 6.4-0.6 0.4-2.2 0.4-3.5 0-1.6-0.4-2.4-1.6-3-4.8-0.6-3.3-1.2-4.3-3.5-5-1.8-0.5-2.8-1.5-2.9-3.1-0.1-1.3 0.3-2.7 0.8-3.1 0.5-0.4 1.8-0.4 2.9 0z"/><path class="o" d="m28.2 114c0.4 0 0.8 0.7 0.8 1.5 0 0.8-0.7 1.5-1.5 1.5-0.8 0-1.6-0.4-1.7-0.8-0.1-0.5 0.2-1.2 0.7-1.5 0.5-0.4 1.2-0.7 1.7-0.7z"/><path class="p" d="m205.1 28.4c0.5 0.3 1.8 2.4 2.9 4.6 1.1 2.2 2 4.2 2 4.5 0 0.3-0.8 0.3-1.8 0-0.9-0.3-2.3-2.2-2.9-4.3-0.7-2-1.2-4.1-1.2-4.5 0.1-0.5 0.5-0.6 1-0.3z"/><path class="q" d="m209.8 77c0.7 0 1.6 0.9 2.2 2 0.5 1.1 1 2.4 1 3 0 0.5-0.7 1-1.5 1-0.8 0-1.5-0.7-1.5-1.5 0-0.8-0.3-2.2-0.7-3-0.3-0.8-0.1-1.5 0.5-1.5z"/></svg>